<?xml version="1.0" encoding="utf-8"?>
<!-- Generator: Adobe Illustrator 25.4.1, SVG Export Plug-In . SVG Version: 6.00 Build 0)  -->
<svg version="1.1" id="Layer_2_xA0_Image_00000142168350272067820630000009576204124128889779_"
	 xmlns="http://www.w3.org/2000/svg" xmlns:xlink="http://www.w3.org/1999/xlink" x="0px" y="0px" viewBox="0 0 600 453.44"
	 style="enable-background:new 0 0 600 453.44;" xml:space="preserve">
<style type="text/css">
	.st0{fill:#FEFEFE;}
	.st1{fill:#907893;}
	.st2{fill:#907993;}
</style>
<g>
	<path class="st0" d="M575.95,226.22c0,63.3-0.04,126.6,0.1,189.91c0.01,3.42-0.67,4.1-4.1,4.09c-85.3-0.12-170.59-0.1-255.89-0.1
		c8.58-3.34,9.17-4.16,8.98-14.02c-0.2-10.31-0.78-20.61-0.8-30.92c-0.05-31.78-0.17-63.56,0.38-95.35
		c0.61-35.45,0.34-70.91,0.44-106.37c0.03-10.21-2.73-12.99-13-13.16c-2.16-0.04-4.32,0.1-6.48,0.24c-2.31,0.15-3.29,1.26-3.62,3.76
		c-2.12,16.18-3.04,32.45-3.48,48.73c-0.81,29.94,0.36,59.86,1.33,89.79c1.12,34.41,3.05,68.82,2.27,103.27
		c-0.15,6.73,1.17,11.7,7.99,14.02c-94.63,0-189.25-0.02-283.88,0.1c-3.42,0-4.1-0.67-4.09-4.09c0.12-100.62,0.1-201.23,0.1-301.85
		c3.21,5.1,5.02,10.81,6.02,16.6c1.78,10.31,2.9,20.73,4.2,31.12c4.94,39.32,6.77,78.86,7.58,118.43
		c0.81,39.45-0.04,78.9-0.62,118.35c-0.11,7.08,2.81,9.57,9.62,11.55c6.9,2.01,13.14-0.47,19.33-2.94
		c21.01-8.35,39.87-20.58,58.74-32.77c27.26-17.6,53.19-37.19,80.98-54c5.59-3.38,7.58-7.5,5.8-12.3
		c-1.39-3.77-7.63-6.19-13.03-4.83c-4.87,1.23-9.36,3.43-13.64,6.03c-14.08,8.56-27.76,17.75-41.17,27.32
		c-18.29,13.04-36.38,26.41-56.95,35.82c-4.68,2.14-9.38,4.32-14.64,4.71c-5.94,0.44-6.24,0.19-6.24-5.67
		c0-24.65,0.33-49.3-0.19-73.94c-0.17-8.33,3-13.88,9.16-18.68c10.97-8.54,23.25-14.86,35.5-21.22
		c17.58-9.12,35.31-17.98,50.64-30.79c4.75-3.97,9.25-8.18,10.92-14.5c1.36-5.15-2.5-9.52-7.88-8.83c-4.7,0.61-8.45,3.08-11.44,6.56
		c-2.23,2.6-4.91,4.38-7.85,6.01c-26.6,14.81-53.17,29.67-79.74,44.53c-5.51,3.08-5.63,3.07-5.99-3.33
		c-0.57-10.13-0.94-20.28-1.59-30.4c-1.29-20.08-3.05-40.14-2.94-60.29c0.01-2.75,1-4.19,3.39-5.36c9.4-4.63,18.7-9.46,28.07-14.16
		c30.33-15.22,60.67-30.43,91.02-45.59c3.72-1.86,6.84-4.12,7.8-8.47c0.71-3.23,0.11-4.99-3.88-4.64
		c-11.8,1.03-23.33,3.16-34.74,6.42c-30.25,8.65-58.37,22.2-86.1,36.7c-5.77,3.02-5.65,3.02-6.2-3.67
		c-0.77-9.37-2.69-18.44-7.88-26.49c-4.79-7.43-11.4-8.27-18.11-2.52c-3.61,3.1-5.3,7.48-7.97,11.2c0-24.11,0.15-48.23-0.14-72.34
		c-0.05-4.31,1.2-4.72,5-4.72c71.35,0.13,142.7,0.1,214.05,0.1c-1.38,0.84-2.69,1.89-4.17,2.48c-4.51,1.8-5.67,4.68-4.32,9.41
		c1.27,4.45,1.74,9.14,2.35,13.76c6.21,47.21,8.92,94.7,10.94,142.23c0.82,19.29,1.19,38.6,1.32,57.91
		c0.3,44.1,1.36,88.24-4.29,132.15c-0.56,4.32,0.72,7.63,3.55,10.34c5.67,5.45,12.32,7.57,20.17,5.17c3.32-1.02,4.73-2.59,4.68-6.34
		c-0.28-20.14-0.42-40.27-0.97-60.42c-0.92-33.43-1.91-66.86-3.04-100.29c-1.02-30.09-2.3-60.17-4.04-90.23
		c-2.05-35.38-5.17-70.67-8.34-105.96c-0.39-4.39-1.63-8.09-5.83-10.21c107.62,0,215.24,0.02,322.86-0.1c3.42,0,4.1,0.67,4.1,4.09
		c-0.13,59.97-0.1,119.94-0.1,179.91c-3.31-11.68-12.03-17.15-23.12-19.04c-26.37-4.49-52-0.9-77,8.11
		c-7.43,2.68-14.34,6.53-22.5,10.85c2.19-4.82,4.9-7.43,7.38-10.2c12.55-14,25.86-27.34,37.29-42.32
		c10.07-13.19,18.75-27.11,21.49-43.91c2.59-15.85-2.4-24.02-17.87-28.3c-13.14-3.64-26.37-2.84-39.49,0.39
		c-26.84,6.6-50.24,19.96-71.98,36.61c-6.59,5.05-6.68,4.98-10.23-2.23c-1.7-3.46-3.75-6.67-6.25-9.6c-2.44-2.86-5.42-4.87-9.19-5.6
		c-5.25-1.02-8.94,1.51-9.36,6.88c-0.5,6.33-0.84,12.92,2.1,18.65c4.79,9.32,5.32,19.46,6.82,29.43
		c4.93,32.71,9.74,65.43,14.59,98.15c4.48,30.25,8.95,60.51,13.41,90.76c2.47,16.78,4.86,33.57,7.44,50.33
		c0.25,1.61-0.28,3.79,1.87,4.81c6.31,3.02,14.57-1.44,15.54-8.38c1.34-9.64,1.05-19.32-0.43-28.85
		c-2.73-17.57-5.83-35.08-9.14-52.55c-2.97-15.66-3.21-30.74,6.78-44.35c2.95-4.02,5.52-8.36,8.75-12.14
		c23.64-27.66,53.59-44.21,89.39-50.38c11-1.9,21.54-1.13,31.26,4.91c7.26,4.51,9.93,11.46,7.77,19.74
		c-2.15,8.21-6.52,15.26-11.52,21.96c-8.79,11.77-18.81,22.44-29.05,32.93c-19.43,19.9-39.96,38.71-58.44,59.53
		c-6.64,7.47-12.83,15.3-17.12,24.46c-1.52,3.24-1.29,4.92,2.25,7.01c6.99,4.12,12.52,2.87,18.54-1.94
		c14.78-11.79,27.96-25.2,40.23-39.47C527.17,307.44,558.46,271.51,575.95,226.22z M303.46,84.14c-3.52,0.15-8.81-0.12-10.19,5.66
		c-1.06,4.46-0.76,9.22,1.33,13.62c4.51,9.51,15.48,10.45,21.63,1.93c2.77-3.84,1.07-7.75,0.36-11.49
		C315.16,86.33,312.19,84.17,303.46,84.14z"/>
	<path class="st1" d="M577.95,226.22c-17.49,45.29-48.78,81.22-79.81,117.28c-12.27,14.26-25.45,27.67-40.23,39.47
		c-6.02,4.8-11.56,6.06-18.54,1.94c-3.54-2.09-3.76-3.77-2.25-7.01c4.29-9.17,10.49-16.99,17.12-24.46
		c18.48-20.82,39.01-39.64,58.44-59.53c10.24-10.49,20.27-21.17,29.05-32.93c5-6.7,9.36-13.74,11.52-21.96
		c2.17-8.28-0.5-15.22-7.77-19.74c-9.72-6.04-20.26-6.81-31.26-4.91c-35.79,6.17-65.75,22.72-89.39,50.38
		c-3.23,3.78-5.8,8.11-8.75,12.14c-9.99,13.62-9.75,28.69-6.78,44.35c3.31,17.47,6.41,34.99,9.14,52.55
		c1.48,9.53,1.77,19.21,0.43,28.85c-0.97,6.94-9.23,11.4-15.54,8.38c-2.15-1.03-1.62-3.21-1.87-4.81
		c-2.59-16.76-4.97-33.55-7.44-50.33c-4.46-30.26-8.93-60.51-13.41-90.76c-4.84-32.72-9.66-65.45-14.59-98.15
		c-1.5-9.97-2.04-20.1-6.82-29.43c-2.94-5.73-2.6-12.32-2.1-18.65c0.42-5.36,4.11-7.9,9.36-6.88c3.77,0.73,6.75,2.74,9.19,5.6
		c2.49,2.93,4.54,6.14,6.25,9.6c3.55,7.2,3.64,7.28,10.23,2.23c21.74-16.66,45.14-30.01,71.98-36.61
		c13.13-3.23,26.35-4.02,39.49-0.39c15.47,4.28,20.46,12.45,17.87,28.3c-2.75,16.8-11.43,30.72-21.49,43.91
		c-11.43,14.98-24.74,28.31-37.29,42.32c-2.48,2.77-5.18,5.38-7.38,10.2c8.16-4.32,15.07-8.18,22.5-10.85
		c25-9.01,50.63-12.6,77-8.11c11.09,1.89,19.81,7.37,23.12,19.04C577.95,220.22,577.95,223.22,577.95,226.22z M402.37,241.08
		c1.01-0.79,1.83-1.34,2.56-2c27.47-24.6,52.95-51.05,74.82-80.82c7.49-10.2,14.88-20.53,17.77-33.18
		c1.78-7.77-1.45-11.78-9.43-12.11c-8.4-0.35-16.57,1.28-24.63,3.35c-22.72,5.83-43.73,15.03-60.67,31.83
		c-7.38,7.32-11.36,16.05-11.19,26.8c0.19,12.5,0.79,24.95,2.61,37.3C395.66,222.09,397.99,231.77,402.37,241.08z"/>
	<path class="st1" d="M28.19,110.28c2.67-3.72,4.36-8.11,7.97-11.2c6.7-5.75,13.32-4.91,18.11,2.52c5.19,8.05,7.12,17.13,7.88,26.49
		c0.55,6.69,0.42,6.69,6.2,3.67c27.73-14.5,55.85-28.05,86.1-36.7c11.4-3.26,22.94-5.4,34.74-6.42c3.99-0.35,4.59,1.4,3.88,4.64
		c-0.96,4.34-4.08,6.61-7.8,8.47c-30.36,15.17-60.69,30.38-91.02,45.59c-9.37,4.7-18.67,9.53-28.07,14.16
		c-2.39,1.18-3.38,2.61-3.39,5.36c-0.1,20.15,1.66,40.21,2.94,60.29c0.65,10.13,1.03,20.27,1.59,30.4c0.36,6.4,0.48,6.41,5.99,3.33
		c26.57-14.86,53.14-29.72,79.74-44.53c2.93-1.63,5.61-3.41,7.85-6.01c2.99-3.48,6.74-5.95,11.44-6.56c5.38-0.7,9.23,3.68,7.88,8.83
		c-1.67,6.32-6.16,10.53-10.92,14.5c-15.33,12.81-33.06,21.66-50.64,30.79c-12.26,6.36-24.53,12.68-35.5,21.22
		c-6.16,4.8-9.34,10.35-9.16,18.68c0.51,24.64,0.18,49.29,0.19,73.94c0,5.86,0.29,6.11,6.24,5.67c5.26-0.39,9.96-2.57,14.64-4.71
		c20.57-9.41,38.65-22.78,56.95-35.82c13.42-9.57,27.09-18.75,41.17-27.32c4.28-2.6,8.77-4.81,13.64-6.03
		c5.4-1.36,11.63,1.06,13.03,4.83c1.77,4.8-0.21,8.92-5.8,12.3c-27.79,16.8-53.73,36.39-80.98,54
		c-18.87,12.19-37.74,24.41-58.74,32.77c-6.19,2.46-12.43,4.94-19.33,2.94c-6.81-1.98-9.73-4.48-9.62-11.55
		c0.59-39.45,1.43-78.9,0.62-118.35c-0.81-39.58-2.64-79.11-7.58-118.43c-1.3-10.39-2.42-20.81-4.2-31.12
		c-1-5.79-2.81-11.5-6.02-16.6C28.19,112.94,28.19,111.61,28.19,110.28z"/>
	<path class="st2" d="M247.09,33.32c4.2,2.12,5.43,5.82,5.83,10.21c3.17,35.29,6.29,70.58,8.34,105.96
		c1.74,30.06,3.03,60.14,4.04,90.23c1.13,33.43,2.12,66.85,3.04,100.29c0.55,20.14,0.69,40.28,0.97,60.42
		c0.05,3.75-1.36,5.32-4.68,6.34c-7.84,2.4-14.49,0.28-20.17-5.17c-2.83-2.72-4.11-6.02-3.55-10.34
		c5.65-43.9,4.59-88.04,4.29-132.15c-0.13-19.31-0.51-38.62-1.32-57.91c-2.02-47.53-4.72-95.02-10.94-142.23
		c-0.61-4.61-1.07-9.31-2.35-13.76c-1.35-4.73-0.2-7.61,4.32-9.41c1.48-0.59,2.78-1.64,4.17-2.48
		C241.76,33.32,244.42,33.32,247.09,33.32z"/>
	<path class="st1" d="M310.06,420.12c-6.82-2.32-8.14-7.29-7.99-14.02c0.78-34.45-1.16-68.86-2.27-103.27
		c-0.97-29.93-2.14-59.85-1.33-89.79c0.44-16.28,1.36-32.55,3.48-48.73c0.33-2.5,1.32-3.61,3.62-3.76c2.16-0.14,4.32-0.28,6.48-0.24
		c10.27,0.17,13.03,2.96,13,13.16c-0.1,35.46,0.17,70.92-0.44,106.37c-0.54,31.79-0.43,63.57-0.38,95.35
		c0.02,10.31,0.6,20.61,0.8,30.92c0.19,9.85-0.4,10.67-8.98,14.02C314.06,420.12,312.06,420.12,310.06,420.12z"/>
	<path class="st2" d="M303.46,84.14c8.73,0.03,11.69,2.18,13.13,9.73c0.71,3.74,2.41,7.65-0.36,11.49
		c-6.15,8.52-17.11,7.58-21.63-1.93c-2.09-4.4-2.39-9.16-1.33-13.62C294.65,84.03,299.94,84.29,303.46,84.14z"/>
	<path class="st0" d="M400.37,241.08c-4.39-9.32-6.71-19-8.16-28.84c-1.82-12.34-2.42-24.8-2.61-37.3
		c-0.16-10.75,3.81-19.48,11.19-26.8c16.94-16.8,37.95-26,60.67-31.83c8.06-2.07,16.23-3.7,24.63-3.35
		c7.99,0.33,11.21,4.34,9.43,12.11c-2.9,12.65-10.28,22.98-17.77,33.18c-21.87,29.77-47.35,56.22-74.82,80.82
		C402.2,239.74,401.38,240.3,400.37,241.08z"/>
</g>
</svg>
