<svg width="600" height="454" viewBox="0 0 600 454" fill="none" xmlns="http://www.w3.org/2000/svg">
<path d="M577.95 226.22C560.46 271.51 529.17 307.44 498.14 343.5C485.87 357.76 472.69 371.17 457.91 382.97C451.89 387.77 446.35 389.03 439.37 384.91C435.83 382.82 435.61 381.14 437.12 377.9C441.41 368.73 447.61 360.91 454.24 353.44C472.72 332.62 493.25 313.8 512.68 293.91C522.92 283.42 532.95 272.74 541.73 260.98C546.73 254.28 551.09 247.24 553.25 239.02C555.42 230.74 552.75 223.8 545.48 219.28C535.76 213.24 525.22 212.47 514.22 214.37C478.43 220.54 448.47 237.09 424.83 264.75C421.6 268.53 419.03 272.86 416.08 276.89C406.09 290.51 406.33 305.58 409.3 321.24C412.61 338.71 415.71 356.23 418.44 373.79C419.92 383.32 420.21 393 418.87 402.64C417.9 409.58 409.64 414.04 403.33 411.02C401.18 409.99 401.71 407.81 401.46 406.21C398.87 389.45 396.49 372.66 394.02 355.88C389.56 325.62 385.09 295.37 380.61 265.12C375.77 232.4 370.95 199.67 366.02 166.97C364.52 157 363.98 146.87 359.2 137.54C356.26 131.81 356.6 125.22 357.1 118.89C357.52 113.53 361.21 110.99 366.46 112.01C370.23 112.74 373.21 114.75 375.65 117.61C378.14 120.54 380.19 123.75 381.9 127.21C385.45 134.41 385.54 134.49 392.13 129.44C413.87 112.78 437.27 99.4301 464.11 92.8301C477.24 89.6001 490.46 88.8101 503.6 92.4401C519.07 96.7201 524.06 104.89 521.47 120.74C518.72 137.54 510.04 151.46 499.98 164.65C488.55 179.63 475.24 192.96 462.69 206.97C460.21 209.74 457.51 212.35 455.31 217.17C463.47 212.85 470.38 208.99 477.81 206.32C502.81 197.31 528.44 193.72 554.81 198.21C565.9 200.1 574.62 205.58 577.93 217.25C577.95 220.22 577.95 223.22 577.95 226.22ZM402.37 241.08C403.38 240.29 404.2 239.74 404.93 239.08C432.4 214.48 457.88 188.03 479.75 158.26C487.24 148.06 494.63 137.73 497.52 125.08C499.3 117.31 496.07 113.3 488.09 112.97C479.69 112.62 471.52 114.25 463.46 116.32C440.74 122.15 419.73 131.35 402.79 148.15C395.41 155.47 391.43 164.2 391.6 174.95C391.79 187.45 392.39 199.9 394.21 212.25C395.66 222.09 397.99 231.77 402.37 241.08Z" fill="#907893"/>
<path d="M28.1899 110.28C30.8599 106.56 32.5499 102.17 36.1599 99.0801C42.8599 93.3301 49.4799 94.1701 54.2699 101.6C59.4599 109.65 61.3899 118.73 62.1499 128.09C62.6999 134.78 62.5699 134.78 68.3499 131.76C96.0799 117.26 124.2 103.71 154.45 95.0601C165.85 91.8001 177.39 89.6601 189.19 88.6401C193.18 88.2901 193.78 90.0401 193.07 93.2801C192.11 97.6201 188.99 99.8901 185.27 101.75C154.91 116.92 124.58 132.13 94.2499 147.34C84.8799 152.04 75.5799 156.87 66.1799 161.5C63.7899 162.68 62.7999 164.11 62.7899 166.86C62.6899 187.01 64.4499 207.07 65.7299 227.15C66.3799 237.28 66.7599 247.42 67.3199 257.55C67.6799 263.95 67.7999 263.96 73.3099 260.88C99.8799 246.02 126.45 231.16 153.05 216.35C155.98 214.72 158.66 212.94 160.9 210.34C163.89 206.86 167.64 204.39 172.34 203.78C177.72 203.08 181.57 207.46 180.22 212.61C178.55 218.93 174.06 223.14 169.3 227.11C153.97 239.92 136.24 248.77 118.66 257.9C106.4 264.26 94.1299 270.58 83.1599 279.12C76.9999 283.92 73.8199 289.47 73.9999 297.8C74.5099 322.44 74.1799 347.09 74.1899 371.74C74.1899 377.6 74.4799 377.85 80.4299 377.41C85.6899 377.02 90.3899 374.84 95.0699 372.7C115.64 363.29 133.72 349.92 152.02 336.88C165.44 327.31 179.11 318.13 193.19 309.56C197.47 306.96 201.96 304.75 206.83 303.53C212.23 302.17 218.46 304.59 219.86 308.36C221.63 313.16 219.65 317.28 214.06 320.66C186.27 337.46 160.33 357.05 133.08 374.66C114.21 386.85 95.3399 399.07 74.3399 407.43C68.1499 409.89 61.9099 412.37 55.0099 410.37C48.1999 408.39 45.2799 405.89 45.3899 398.82C45.9799 359.37 46.8199 319.92 46.0099 280.47C45.1999 240.89 43.3699 201.36 38.4299 162.04C37.1299 151.65 36.0099 141.23 34.2299 130.92C33.2299 125.13 31.4199 119.42 28.2099 114.32C28.1899 112.94 28.1899 111.61 28.1899 110.28Z" fill="#907893"/>
<path d="M247.09 33.3201C251.29 35.4401 252.52 39.1401 252.92 43.5301C256.09 78.8201 259.21 114.11 261.26 149.49C263 179.55 264.29 209.63 265.3 239.72C266.43 273.15 267.42 306.57 268.34 340.01C268.89 360.15 269.03 380.29 269.31 400.43C269.36 404.18 267.95 405.75 264.63 406.77C256.79 409.17 250.14 407.05 244.46 401.6C241.63 398.88 240.35 395.58 240.91 391.26C246.56 347.36 245.5 303.22 245.2 259.11C245.07 239.8 244.69 220.49 243.88 201.2C241.86 153.67 239.16 106.18 232.94 58.9701C232.33 54.3601 231.87 49.6601 230.59 45.2101C229.24 40.4801 230.39 37.6001 234.91 35.8001C236.39 35.2101 237.69 34.1601 239.08 33.3201C241.76 33.3201 244.42 33.3201 247.09 33.3201Z" fill="#907993"/>
<path d="M310.06 420.12C303.24 417.8 301.92 412.83 302.07 406.1C302.85 371.65 300.91 337.24 299.8 302.83C298.83 272.9 297.66 242.98 298.47 213.04C298.91 196.76 299.83 180.49 301.95 164.31C302.28 161.81 303.27 160.7 305.57 160.55C307.73 160.41 309.89 160.27 312.05 160.31C322.32 160.48 325.08 163.27 325.05 173.47C324.95 208.93 325.22 244.39 324.61 279.84C324.07 311.63 324.18 343.41 324.23 375.19C324.25 385.5 324.83 395.8 325.03 406.11C325.22 415.96 324.63 416.78 316.05 420.13C314.06 420.12 312.06 420.12 310.06 420.12Z" fill="#907893"/>
<path d="M303.46 84.1399C312.19 84.1699 315.15 86.3199 316.59 93.8699C317.3 97.6099 319 101.52 316.23 105.36C310.08 113.88 299.12 112.94 294.6 103.43C292.51 99.0299 292.21 94.2699 293.27 89.8099C294.65 84.0299 299.94 84.2899 303.46 84.1399Z" fill="#907993"/>
</svg>
